PathFileType	4	(X/Y/Z)	s03c0302.trc
DataRate	CameraRate	NumFrames	NumMarkers	Units	OrigDataRate	OrigDataStartFrame	OrigNumFrames
200	200	4	52	mm	200	0	2000
Frame#	Time	racr			lacr			c7			jug			rlel			rdr			llel			ldr			s2			lic			ric			lasi			rasi			rpsi			lpsi			rgt			lgt			rth1			rth2			rth3			rth4			rlfc			rmfc			rsh1			rsh2			rsh3			rsh4			rlmal			rmmal			rcal			rtoe			rmt5			rmt1			lth1			lth2			lth4			lth3			llfc			lmfc			lsh1			lsh2			lsh3			lsh4			llmal			lmmal			lcal			ltoe			lmt1			lmt5			SBIKE			LBIKE			RBIKE			
		X1	Y1	Z1	X2	Y2	Z2	X3	Y3	Z3	X4	Y4	Z4	X5	Y5	Z5	X6	Y6	Z6	X7	Y7	Z7	X8	Y8	Z8	X9	Y9	Z9	X10	Y10	Z10	X11	Y11	Z11	X12	Y12	Z12	X13	Y13	Z13	X14	Y14	Z14	X15	Y15	Z15	X16	Y16	Z16	X17	Y17	Z17	X18	Y18	Z18	X19	Y19	Z19	X20	Y20	Z20	X21	Y21	Z21	X22	Y22	Z22	X23	Y23	Z23	X24	Y24	Z24	X25	Y25	Z25	X26	Y26	Z26	X27	Y27	Z27	X28	Y28	Z28	X29	Y29	Z29	X30	Y30	Z30	X31	Y31	Z31	X32	Y32	Z32	X33	Y33	Z33	X34	Y34	Z34	X35	Y35	Z35	X36	Y36	Z36	X37	Y37	Z37	X38	Y38	Z38	X39	Y39	Z39	X40	Y40	Z40	X41	Y41	Z41	X42	Y42	Z42	X43	Y43	Z43	X44	Y44	Z44	X45	Y45	Z45	X46	Y46	Z46	X47	Y47	Z47	X48	Y48	Z48	X49	Y49	Z49	X50	Y50	Z50	X51	Y51	Z51	X52	Y52	Z52	
0	0.0000	499.439839	1412.165866	-84.034387	492.333268	1423.377654	-417.711240	425.026489	1507.675471	-249.654763	468.611827	1340.571298	-242.727660	540.248501	1145.320237	7.648686	748.882573	946.825370	-42.893735	549.465722	1156.832864	-482.137252	755.403669	935.369266	-433.699355	-81.074521	1209.182138	-247.282621	107.292279	1207.838700	-424.596165	96.012044	1236.687836	-60.922588	120.067374	1132.899357	-390.789958	106.484022	1171.624030	-102.907525	-50.251185	1258.270326	-204.171752	-43.191166	1253.497752	-287.273351	31.544145	1158.693278	-40.887758	30.573960	1098.693609	-442.049873	157.438015	1072.839429	-26.729212	246.396363	1071.506578	-27.416043	322.362261	1028.935036	-30.639511	256.800062	1103.783229	-42.121420	439.265345	966.090354	-50.616087	442.402406	950.776659	-179.484232	361.505191	820.820770	-32.192722	334.863470	737.570423	-48.478202	267.649093	679.183513	-51.574986	358.265165	724.865152	-75.876845	190.831033	570.614926	-73.790773	214.544170	582.368652	-163.354527	119.857001	526.787019	-114.730037	428.360415	509.572134	-119.788352	310.085866	498.191400	-48.106389	334.146724	511.965040	-163.335818	89.017036	946.851763	-457.923184	143.778878	878.728339	-460.227406	177.361774	894.597483	-457.629005	158.995194	792.464491	-446.485652	229.520222	682.800067	-426.131057	231.437602	674.159159	-304.476834	149.644540	528.639387	-450.386927	140.713708	445.642920	-431.877044	87.344323	371.866197	-425.983671	169.229421	438.088693	-406.621884	34.479714	254.181018	-402.036165	67.499570	266.739373	-311.897736	-32.804181	206.960327	-353.224634	276.470126	195.468344	-361.245640	184.928033	194.710691	-316.108441	154.930488	173.661703	-430.563350	-217.885151	944.222525	-234.387881	-11.662504	80.218520	-434.901979	-11.868382	80.732560	-34.906568	
1	0.0050	499.500522	1412.305179	-84.063923	492.335485	1423.329319	-417.693676	425.056276	1507.627224	-249.591319	468.593612	1340.525934	-242.670606	540.230168	1145.309379	7.683258	748.874848	946.833994	-42.882806	550.458044	1155.960435	-480.162437	755.403585	935.360982	-433.705490	-81.045327	1209.157014	-247.313280	107.254309	1207.828734	-424.556419	96.003776	1236.677686	-60.925108	120.052321	1132.917577	-390.819308	106.481522	1171.639916	-102.905225	-50.234492	1258.273066	-204.181170	-43.161416	1253.489234	-287.286512	31.542713	1158.682833	-40.897323	30.559999	1098.690081	-442.048285	157.438872	1072.815123	-26.714218	246.394530	1071.508392	-27.401566	322.341424	1028.933535	-30.627635	256.797436	1103.808862	-42.087884	439.268293	966.095841	-50.583257	442.428680	950.720973	-179.866829	361.480214	820.844297	-32.180281	334.844743	737.581997	-48.472920	267.615815	679.220427	-51.551343	358.261862	724.901612	-75.882138	190.803332	570.642840	-73.771043	214.508210	582.406239	-163.347566	119.798999	526.867944	-114.714240	428.300771	509.601085	-119.798206	310.033420	498.206876	-48.114244	334.094163	511.982752	-163.334135	88.998299	946.836640	-457.921172	143.738952	878.703862	-460.227634	177.351553	894.592480	-457.611830	158.962428	792.471732	-446.463437	229.471988	682.783594	-426.121738	231.426957	674.122966	-304.451339	149.608495	528.683468	-450.435713	140.725443	445.615686	-431.874565	87.369573	371.828833	-425.980904	169.240524	438.088995	-406.639220	34.519849	254.128401	-402.015665	67.602197	266.672082	-311.893543	-32.742975	206.905566	-353.224304	276.443799	195.448926	-361.312198	184.993264	194.688875	-316.128914	154.985322	173.638155	-430.563892	-217.878793	944.231387	-234.386139	-11.664697	80.212486	-434.882952	-11.899937	80.793578	-34.920526	
2	0.0100	499.490630	1412.277689	-84.016679	492.348166	1423.315396	-417.660906	425.076377	1507.608103	-249.551516	468.575912	1340.503573	-242.690607	540.214768	1145.289286	7.740632	748.879048	946.840535	-42.847658	550.158401	1155.713867	-479.823086	755.411782	935.360320	-433.704192	-81.041391	1209.157148	-247.294762	107.241793	1207.807530	-424.517670	95.983461	1236.682274	-60.898400	119.996166	1132.876300	-390.720427	106.450225	1171.667885	-102.869309	-50.219213	1258.276941	-204.168510	-43.153369	1253.489786	-287.260804	31.545550	1158.680072	-40.890906	30.561529	1098.676892	-442.032156	157.421921	1072.825492	-26.681438	246.369727	1071.518553	-27.380663	322.339127	1028.929560	-30.603408	256.764455	1103.809023	-42.048823	439.271592	966.105233	-50.567376	442.385565	950.794256	-179.447902	361.459601	820.851582	-32.151953	334.813140	737.616378	-48.445023	267.581487	679.241984	-51.532984	358.221280	724.938481	-75.847923	190.762231	570.673035	-73.781868	214.455773	582.437444	-163.336841	119.754270	526.883440	-114.715149	428.234131	509.626806	-119.790561	309.965224	498.252101	-48.097673	334.041342	512.007340	-163.327004	88.988616	946.833218	-457.896477	143.713762	878.695841	-460.222809	177.339557	894.576692	-457.600565	158.931030	792.454614	-446.433526	229.439635	682.786241	-426.101693	231.394421	674.082021	-304.450083	149.614751	528.603752	-450.368807	140.726791	445.599875	-431.870653	87.378680	371.817459	-425.983906	169.246005	438.054996	-406.601659	34.553521	254.083429	-402.014148	67.640450	266.648261	-311.887419	-32.695369	206.853614	-353.219568	276.490643	195.436621	-361.289853	185.045545	194.652705	-316.098169	155.031429	173.621161	-430.563204	-217.879318	944.231575	-234.385461	-11.665871	80.226087	-434.871589	-11.861610	80.754397	-34.908351	
3	0.0150	502.004812	1411.870374	-84.096320	492.717009	1422.762761	-415.724056	425.121033	1507.568476	-249.562059	466.030890	1340.410002	-243.813067	540.630032	1145.217255	8.228557	748.881811	946.836458	-42.837440	550.413575	1155.937925	-480.236723	755.390443	935.375897	-433.702459	-81.619077	1208.716222	-247.262024	106.574606	1208.208948	-425.472276	96.306113	1236.652563	-60.854415	117.750228	1130.707032	-386.092016	106.452890	1171.652852	-102.871853	-50.211842	1258.271797	-204.170999	-43.139964	1253.485259	-287.262204	31.516489	1158.684246	-40.870753	30.808052	1099.025421	-442.400703	157.406588	1072.831434	-26.653146	246.362044	1071.526011	-27.362127	321.649770	1029.202484	-30.151399	255.973125	1104.209831	-43.003267	439.141086	965.959992	-50.361751	442.999573	948.774374	-174.958307	361.403177	820.832536	-32.068079	334.797607	737.641236	-48.409077	267.544737	679.262757	-51.513171	359.136641	725.657228	-75.764020	190.650615	570.726973	-73.674607	214.465823	582.522500	-163.298495	119.703314	526.927231	-114.702765	428.174560	509.649032	-119.772456	309.922041	498.274005	-48.081894	333.986307	512.035504	-163.323288	88.968481	946.819348	-457.881728	143.707171	878.678098	-460.203424	177.256689	894.743485	-458.125827	158.911616	792.447504	-446.412396	230.751060	682.139683	-424.618980	231.357652	674.077236	-304.411246	150.253198	527.824046	-448.974438	141.391785	444.512257	-430.048982	87.402808	371.776243	-425.969346	169.952349	437.095211	-404.822768	33.993283	255.130575	-403.722859	67.702740	266.602390	-311.900597	-32.647789	206.803252	-353.220673	276.529158	195.421785	-361.301102	184.635490	191.295102	-311.553437	155.772532	171.925521	-428.328967	-217.924475	944.251590	-234.706657	-11.667474	80.215155	-434.870481	-11.898117	80.795825	-34.917797	
